# xmcd
#
# Track frame offsets:
#	150
#	18229
#	37857
#	56708
#	77133
#	92410
#	113973
#	131793
#	149631
#	166433
#	180734
#	195007
#
# Disc length: 3025 seconds
# Revision: 0
# Processed by: cddbd v1.5.2PL0 Copyright (c) Steve Scherf et al.
# Submitted via: dBpowerAMP V12.0
#
DISCID=9a0bcf0c
DTITLE=Devil Makes Three - Do Wrong Right
DYEAR=2009
DGENRE=Country
TTITLE0=All Hail
TTITLE1=Do Wrong Right
TTITLE2=Gracefully Facedown
TTITLE3=For Good Again
TTITLE4=Statesboro Blues
TTITLE5=Johnson Family
TTITLE6=Poison Trees
TTITLE7=Help Yourself
TTITLE8=Working Man's Blues
TTITLE9=Aces And Twos
TTITLE10=Cheap Reward
TTITLE11=Car Wreck
EXTD=
EXTT0=
EXTT1=
EXTT2=
EXTT3=
EXTT4=
EXTT5=
EXTT6=
EXTT7=
EXTT8=
EXTT9=
EXTT10=
EXTT11=
PLAYORDER=
